<svg id="Layer_1" data-name="Layer 1" xmlns="http://www.w3.org/2000/svg" xmlns:xlink="http://www.w3.org/1999/xlink" viewBox="0 0 600 670.73"><defs><style>.cls-1{fill:url(#linear-gradient);}</style><linearGradient id="linear-gradient" x1="-101.02" y1="736.37" x2="565.2" y2="70.15" gradientUnits="userSpaceOnUse"><stop offset="0" stop-color="#0350c7"/><stop offset="0.23" stop-color="#036cc4"/><stop offset="0.73" stop-color="#03b4bc"/><stop offset="1" stop-color="#03deb8"/></linearGradient></defs><path class="cls-1" d="M124.74,437V289.75L0,361.67V465.88a74.54,74.54,0,0,0,37.34,64.79l225.22,130a74.76,74.76,0,0,0,74.88,0l87.41-50.4L300,538.14Zm67.94-311.44a128.44,128.44,0,0,0-128.43,0h0A128.42,128.42,0,0,0,0,236.76v70L253.33,160.61ZM407.27,545.15a128.42,128.42,0,0,0,128.5,0l.05,0A128.42,128.42,0,0,0,600,433.93V363.87L346.67,510.13ZM562.55,140.08,337.44,10a75,75,0,0,0-74.88.11l-87.41,50.4L300,132.5,475.15,233.74V381.11l124.85-72V204.86A74.61,74.61,0,0,0,562.55,140.08Z"/></svg>