<svg id="Layer_1" data-name="Layer 1" xmlns="http://www.w3.org/2000/svg" xmlns:xlink="http://www.w3.org/1999/xlink" viewBox="0 0 900 178.04"><defs><style>.cls-1{fill:url(#linear-gradient);}.cls-2{fill:#fff;}.cls-3{fill:#03deb8;}</style><linearGradient id="linear-gradient" x1="-26.82" y1="195.46" x2="150.03" y2="18.62" gradientUnits="userSpaceOnUse"><stop offset="0" stop-color="#0350c7"/><stop offset="0.23" stop-color="#036cc4"/><stop offset="0.73" stop-color="#03b4bc"/><stop offset="1" stop-color="#03deb8"/></linearGradient></defs><path class="cls-1" d="M51.15,33.33A34.09,34.09,0,0,0,0,62.85V81.43l67.24-38.8ZM33.11,116V76.91L0,96v27.66a19.78,19.78,0,0,0,9.91,17.2l59.78,34.51a19.84,19.84,0,0,0,19.88,0L112.77,162,79.63,142.84Zm75,28.71a34.13,34.13,0,0,0,34.11,0h0a34.1,34.1,0,0,0,17-29.52V96.59L92,135.41ZM149.33,37.18,89.57,2.64a19.91,19.91,0,0,0-19.88,0L46.49,16.05,79.63,35.17l46.49,26.88v39.11L159.27,82V54.38A19.82,19.82,0,0,0,149.33,37.18Z"/><path class="cls-2" d="M223.12,131.19a42.86,42.86,0,0,1-16.37-17.9,55.78,55.78,0,0,1-5.59-25,55.81,55.81,0,0,1,5.59-25,42.86,42.86,0,0,1,16.37-17.9q10.78-6.59,25.95-6.59T275,45.35a42.48,42.48,0,0,1,16.31,17.84,56.11,56.11,0,0,1,5.52,25.08,56.18,56.18,0,0,1-5.52,25.09A42.45,42.45,0,0,1,275,131.19q-10.77,6.59-25.95,6.59T223.12,131.19Zm5.19-19.76q6.91,9,20.76,9t20.7-9q6.86-9,6.85-23.16t-6.85-23.15q-6.86-9.06-20.7-9.06t-20.76,9.06q-6.92,9-6.92,23.15T228.31,111.43Z"/><path class="cls-2" d="M325.23,67v9.18q7.45-10.78,21.56-10.78A28,28,0,0,1,373.94,83a46.14,46.14,0,0,1,3.6,18.63,46.14,46.14,0,0,1-3.6,18.63,28,28,0,0,1-27.15,17.57q-13.57,0-21-10v35h-18.1V67Zm4.6,50.24q4.19,5.66,12.57,5.65T355,117.22q4.18-5.66,4.19-15.64T355,85.94q-4.2-5.66-12.58-5.65t-12.57,5.65q-4.2,5.66-4.2,15.64T329.83,117.22Z"/><path class="cls-2" d="M400.75,133.12a30.55,30.55,0,0,1-12-12.91,41.09,41.09,0,0,1-4.13-18.63A41.09,41.09,0,0,1,388.77,83a30.61,30.61,0,0,1,12-12.91q7.85-4.67,18.63-4.66T437.94,70a30.43,30.43,0,0,1,11.91,13.18,45.29,45.29,0,0,1,4.13,20v4h-51.5q1.06,7.85,5.45,12.24a15.47,15.47,0,0,0,11.45,4.39q11.44,0,15.83-8.91h17.57a32.21,32.21,0,0,1-12.24,16.7q-8.79,6.19-21.16,6.19Q408.6,137.78,400.75,133.12Zm35.13-38.46q-1.33-7.18-5.59-11.25a15.2,15.2,0,0,0-10.91-4.06,15.38,15.38,0,0,0-11.05,4.06q-4.26,4.07-5.59,11.25Z"/><path class="cls-2" d="M507.13,84.88q-3-3.8-9.65-3.8A15.43,15.43,0,0,0,487,85.21q-4.67,4.13-4.66,13h-.13v37.93h-18.1V67h17.57v9.58A28.44,28.44,0,0,1,491,68.38a25.9,25.9,0,0,1,12.57-3q11.72,0,18.17,7.32t6.45,20.36v43.12h-18.1v-41Q510.12,88.68,507.13,84.88Z"/><path class="cls-3" d="M542.9,40.36h32.61q15.43,0,26.08,6.26a39.47,39.47,0,0,1,15.91,17.1,55.65,55.65,0,0,1,5.25,24.55,55.67,55.67,0,0,1-5.25,24.56,39.47,39.47,0,0,1-15.91,17.1q-10.65,6.25-26.08,6.25H542.9Zm32.61,84q16.77,0,25.08-9.92t8.32-26.15q0-16.23-8.32-26.15t-25.08-9.91h-19.3v72.13Z"/><path class="cls-3" d="M646.83,133.12a30.91,30.91,0,0,1-11.51-12.91,41.59,41.59,0,0,1-4.06-18.63A41.59,41.59,0,0,1,635.32,83,31,31,0,0,1,646.83,70a34.31,34.31,0,0,1,34.53,0,31.13,31.13,0,0,1,11.45,13,42.44,42.44,0,0,1,4.06,18.83v4H644.43q.93,9.59,6.06,15.3t13.64,5.73a20.76,20.76,0,0,0,11.37-3.07,18.52,18.52,0,0,0,7.26-8.65h12.78a32,32,0,0,1-11.65,16.51,32.43,32.43,0,0,1-19.76,6.12A31.88,31.88,0,0,1,646.83,133.12Zm36.86-37.8q-1.46-8.77-6.46-13.9t-13.1-5.13q-8.13,0-13.18,5.13t-6.38,13.9Z"/><path class="cls-3" d="M720.51,67V77.49a25.45,25.45,0,0,1,9.59-9,28.4,28.4,0,0,1,13.57-3.13q10.11,0,17.3,4.66a29.47,29.47,0,0,1,10.92,12.84,44.75,44.75,0,0,1,3.72,18.7,44.75,44.75,0,0,1-3.72,18.7A29.41,29.41,0,0,1,761,133.12q-7.19,4.66-17.3,4.66-14.77,0-22.62-11.31V162.8H708.54V67Zm5.73,52.9q5.32,6.86,15.44,6.85t15.57-6.85q5.31-6.85,5.32-18.3t-5.32-18.3q-5.32-6.86-15.57-6.85t-15.44,6.85q-5.32,6.85-5.33,18.3T726.24,119.88Z"/><path class="cls-3" d="M800.17,133.12a31,31,0,0,1-11.77-12.91,41.09,41.09,0,0,1-4.13-18.63A41.09,41.09,0,0,1,788.4,83,31,31,0,0,1,800.17,70a37.23,37.23,0,0,1,36.07,0A31,31,0,0,1,848,83a41.08,41.08,0,0,1,4.12,18.63A41.08,41.08,0,0,1,848,120.21a31,31,0,0,1-11.78,12.91,37.23,37.23,0,0,1-36.07,0Zm2.47-13.24q5.31,6.86,15.57,6.85t15.57-6.85q5.33-6.85,5.32-18.3t-5.32-18.3q-5.32-6.86-15.57-6.85t-15.57,6.85q-5.32,6.85-5.33,18.3T802.64,119.88Z"/><path class="cls-3" d="M881.64,45.69V67H900V77.62H881.64v40.86c0,2.49.55,4.28,1.66,5.39s2.9,1.67,5.39,1.67H900v10.64H886c-6,0-10.38-1.28-13-3.86s-4-6.7-4-12.38V77.62H856.35V67H869V45.69Z"/></svg>